<svg width="536" height="709" viewBox="0 0 536 709" fill="none" xmlns="http://www.w3.org/2000/svg">
<mask id="mask0_2607_113" style="mask-type:alpha" maskUnits="userSpaceOnUse" x="-280" y="0" width="816" height="709">
<rect x="-280" width="816" height="709" fill="#C4C4C4"/>
</mask>
<g mask="url(#mask0_2607_113)">
<rect x="-280" width="816" height="374" fill="#F7F8FC"/>
<path d="M165.382 87.2457C167.307 86.4037 169.953 85.682 173.381 85.261C173.381 85.261 175.426 74.2547 189.079 76.2394C202.731 78.2242 215.001 85.8023 215.001 85.8023C215.001 85.8023 221.857 79.9683 229.194 83.8777C231.119 84.9001 232.562 85.9226 233.705 86.8849C235.69 88.5087 234.487 91.6964 231.961 91.6964H166.284C163.818 91.5761 163.096 88.208 165.382 87.2457Z" fill="white"/>
<path d="M380.593 84.9664C382.812 83.9956 385.864 83.1635 389.816 82.678C389.816 82.678 392.174 69.9876 407.916 72.2761C423.657 74.5645 437.804 83.3022 437.804 83.3022C437.804 83.3022 445.71 76.5755 454.17 81.083C456.389 82.2619 458.053 83.4408 459.371 84.5504C461.659 86.4227 460.272 90.0981 457.36 90.0981H381.634C378.79 89.9594 377.958 86.076 380.593 84.9664Z" fill="white"/>
<path d="M-102.685 251.94C-12.3221 242.858 385.949 238.596 536 242.38V724H-355.169L-356 279L-303.627 279.5C-275.721 266.593 -179.094 260.704 -102.685 251.94Z" fill="#ECF0FF"/>
<path d="M109.78 213.793C120.412 213.875 129.365 220.957 132.483 230.644L86.7578 230.156C90.1153 220.55 99.1484 213.712 109.78 213.793Z" fill="#D0D5F4"/>
<path d="M134.721 222.666C139.757 222.748 144.074 226.085 145.593 230.725L123.689 230.481C125.288 225.922 129.685 222.666 134.721 222.666Z" fill="#D0D5F4"/>
<path d="M65.4935 229.503L52.7832 229.34L52.8631 221.525C53.4227 221.444 54.0622 221.362 54.6218 221.362C59.7379 221.525 63.9747 224.863 65.4935 229.503Z" fill="#D0D5F4"/>
<path d="M328 246.513C101.701 244.519 17.7019 279.998 17.7019 279.998L-280 277.407L-279.64 240.998L328 246.513Z" fill="#D0D5F4"/>
<path d="M276.448 246.117C272.994 245.854 279.901 244.196 276.448 244.196C194.138 243.801 171.624 247.935 125.361 252.809C48.9512 260.91 17.5814 271.975 17.5814 271.975L-280 269.472L-279.712 240.953L276.448 246.117Z" fill="#ECEEFA"/>
<path d="M35.3995 114.427L79.2508 92.9559C80.221 92.4949 81.3852 92.429 82.42 92.8901L83.3902 93.3511L82.42 245.628L34.9468 244.245L35.3995 114.427Z" fill="#E1E4F4"/>
<path d="M80.8678 94.6036L82.4201 245.563H112.042L109.779 107.052C109.779 106.064 109.197 105.208 108.356 104.812L83.0022 93.0888C81.9673 92.6936 80.8031 93.4839 80.8678 94.6036Z" fill="#ECEEFA"/>
<path d="M132.545 116.865L129.893 117.524L109.843 110.476L112.042 245.563H137.913L135.973 117.392L135.585 117.194C134.615 116.733 133.58 116.602 132.545 116.865Z" fill="#E1E4F4"/>
<path d="M157.834 245.628L154.083 127.008C154.083 126.349 153.695 125.822 153.113 125.559L135.844 117.326C135.068 116.931 134.162 117.523 134.227 118.446L137.914 245.694H157.834V245.628Z" fill="#ECEEFA"/>
<path d="M64.4395 123.846L61.335 125.097V129.312L64.5042 127.929L64.4395 123.846Z" fill="#D0D5F4"/>
<path d="M61.3354 134.253L64.5047 132.87V128.654L61.3354 129.972V134.253Z" fill="#D0D5F4"/>
<path d="M61.335 129.314V129.972L64.5042 128.655V127.931L61.335 129.314Z" fill="#E1E4F4"/>
<path d="M61.3354 185.759L64.7634 184.968V180.621L61.3354 181.412V185.759Z" fill="#D0D5F4"/>
<path d="M64.7634 175.878L61.3354 176.735V180.818L64.7634 180.028V175.878Z" fill="#D0D5F4"/>
<path d="M64.7634 180.62V180.027L61.3354 180.817V181.41L64.7634 180.62Z" fill="#E1E4F4"/>
<path d="M64.634 158.359L61.3354 159.412V163.43L64.634 162.508V158.359Z" fill="#D0D5F4"/>
<path d="M61.3354 168.437L64.6987 167.449V163.168L61.3354 164.09V168.437Z" fill="#D0D5F4"/>
<path d="M64.6987 163.168L64.634 162.51L61.3354 163.432V164.09L64.6987 163.168Z" fill="#E1E4F4"/>
<path d="M64.5693 141.169L61.3354 142.355V146.307L64.5693 145.187V141.169Z" fill="#D0D5F4"/>
<path d="M61.3354 151.246L64.5693 150.126V145.845L61.3354 146.965V151.246Z" fill="#D0D5F4"/>
<path d="M61.3354 146.306V146.965L64.5693 145.845V145.187L61.3354 146.306Z" fill="#E1E4F4"/>
<path d="M54.3497 178.58L51.5039 179.37V183.059L54.3497 182.4V178.58Z" fill="#D0D5F4"/>
<path d="M51.5039 188.063L54.3497 187.405V183.058L51.5039 183.716V188.063Z" fill="#D0D5F4"/>
<path d="M54.3497 183.058V182.399L51.5039 183.058V183.716L54.3497 183.058Z" fill="#E1E4F4"/>
<path d="M51.5044 205.056L54.3502 204.463V200.05L51.5044 200.643V205.056Z" fill="#D0D5F4"/>
<path d="M54.3497 195.705L51.5039 196.364V199.986L54.3497 199.459V195.705Z" fill="#D0D5F4"/>
<path d="M51.5039 199.985V200.644L54.3497 200.051V199.458L51.5039 199.985Z" fill="#E1E4F4"/>
<path d="M51.5039 171.269L54.3497 170.413L54.285 166.066L51.5039 166.922V171.269Z" fill="#D0D5F4"/>
<path d="M54.285 161.652L51.5039 162.508V166.262L54.285 165.472V161.652Z" fill="#D0D5F4"/>
<path d="M54.285 166.065V165.472L51.5039 166.263V166.921L54.285 166.065Z" fill="#E1E4F4"/>
<path d="M64.828 193.333L61.3354 194.123V198.075L64.828 197.417V193.333Z" fill="#D0D5F4"/>
<path d="M61.3354 203.081L64.8927 202.422L64.828 198.075L61.3354 198.734V203.081Z" fill="#D0D5F4"/>
<path d="M61.3354 198.075V198.734L64.828 198.075V197.416L61.3354 198.075Z" fill="#E1E4F4"/>
<path d="M51.5044 121.803L54.2208 120.617V116.468L51.5044 117.719V121.803Z" fill="#D0D5F4"/>
<path d="M54.2203 111.926L51.5039 113.243V117.063L54.2203 115.812V111.926Z" fill="#D0D5F4"/>
<path d="M54.2203 116.471V115.812L51.5039 117.063V117.722L54.2203 116.471Z" fill="#E1E4F4"/>
<path d="M61.3354 117.524L64.44 116.207L64.3753 111.728L61.3354 113.111V117.524Z" fill="#D0D5F4"/>
<path d="M64.3753 106.789L61.3354 108.303V112.453L64.3753 111.004V106.789Z" fill="#D0D5F4"/>
<path d="M64.3753 111.728V111.003L61.3354 112.452V113.111L64.3753 111.728Z" fill="#E1E4F4"/>
<path d="M51.5039 138.402L54.285 137.217V133.001L51.5039 134.187V138.402Z" fill="#D0D5F4"/>
<path d="M54.2203 128.128L51.5039 129.313V133.463L54.285 132.343L54.2203 128.128Z" fill="#D0D5F4"/>
<path d="M51.5039 133.462V134.187L54.285 133.001V132.343L51.5039 133.462Z" fill="#E1E4F4"/>
<path d="M51.5039 154.672L54.285 153.684V149.403L51.5039 150.391V154.672Z" fill="#D0D5F4"/>
<path d="M54.285 144.988L51.5039 146.042V149.73L54.285 148.743V144.988Z" fill="#D0D5F4"/>
<path d="M51.5039 149.731V150.39L54.285 149.402V148.743L51.5039 149.731Z" fill="#E1E4F4"/>
<path d="M104.798 136.229L104.604 126.086L101.694 124.966L101.823 135.241L104.798 136.229Z" fill="#F7F7FA"/>
<path d="M98.0068 123.582L98.2009 133.988L101.176 134.976L101.047 124.768L98.0068 123.582Z" fill="#F7F7FA"/>
<path d="M98.2656 140.773L98.4597 150.982L101.435 151.838L101.305 141.761L98.2656 140.773Z" fill="#F7F7FA"/>
<path d="M105.186 152.892L104.992 142.947L101.888 141.959L102.082 152.036L105.186 152.892Z" fill="#F7F7FA"/>
<path d="M104.41 119.103L104.216 109.685L101.435 108.433L101.564 117.917L104.41 119.103Z" fill="#F7F7FA"/>
<path d="M97.8135 106.854L97.9428 116.47L100.918 117.722L100.789 108.171L97.8135 106.854Z" fill="#F7F7FA"/>
<path d="M106.545 212.301L102.923 212.037L103.117 222.246L106.803 222.312L106.545 212.301Z" fill="#F7F7FA"/>
<path d="M99.3652 211.84L99.4946 222.18L102.47 222.246L102.34 212.037L99.3652 211.84Z" fill="#F7F7FA"/>
<path d="M105.574 169.818L105.38 160.202L102.146 159.412L102.341 169.094L105.574 169.818Z" fill="#F7F7FA"/>
<path d="M98.5249 158.49L98.7189 168.238L101.694 168.897L101.565 159.215L98.5249 158.49Z" fill="#F7F7FA"/>
<path d="M105.963 187.009L105.769 177.327L102.405 176.669L102.599 186.417L105.963 187.009Z" fill="#F7F7FA"/>
<path d="M98.7832 175.945L98.9772 185.824L101.952 186.351L101.823 176.538L98.7832 175.945Z" fill="#F7F7FA"/>
<path d="M99.1064 193.596L99.2358 203.805L102.211 204.134L102.082 193.991L99.1064 193.596Z" fill="#F7F7FA"/>
<path d="M106.351 204.596L106.157 194.584L102.664 194.123L102.858 204.2L106.351 204.596Z" fill="#F7F7FA"/>
<path d="M94.9676 211.511L91.3457 211.248L91.4104 221.984L95.0323 222.05L94.9676 211.511Z" fill="#F7F7FA"/>
<path d="M87.3354 210.984L87.4648 221.918L90.7633 221.984V211.182L87.3354 210.984Z" fill="#F7F7FA"/>
<path d="M86.3003 119.171L86.4297 129.973L90.3103 131.29L90.2456 120.62L86.3003 119.171Z" fill="#F7F7FA"/>
<path d="M94.3205 132.672L94.2558 122.134L90.8926 120.882L90.9573 131.486L94.3205 132.672Z" fill="#F7F7FA"/>
<path d="M87.0767 191.95L87.206 202.488L90.6986 202.883L90.6339 192.477L87.0767 191.95Z" fill="#F7F7FA"/>
<path d="M94.9027 203.344L94.838 193.004L91.2808 192.542V202.949L94.9027 203.344Z" fill="#F7F7FA"/>
<path d="M94.4496 149.797L94.3849 139.522L90.957 138.468L91.0217 148.809L94.4496 149.797Z" fill="#F7F7FA"/>
<path d="M86.4946 137.02L86.624 147.558L90.4399 148.677L90.3753 138.205L86.4946 137.02Z" fill="#F7F7FA"/>
<path d="M94.1911 114.955L94.0617 105.273L90.7632 103.89L90.8279 113.572L94.1911 114.955Z" fill="#F7F7FA"/>
<path d="M86.1064 101.849L86.1711 111.728L90.2458 113.375L90.1811 103.561L86.1064 101.849Z" fill="#F7F7FA"/>
<path d="M94.5795 167.25L94.5148 157.437L91.0869 156.514L91.1516 166.46L94.5795 167.25Z" fill="#F7F7FA"/>
<path d="M86.6885 155.396L86.8178 165.407L90.5044 166.263L90.4398 156.383L86.6885 155.396Z" fill="#F7F7FA"/>
<path d="M94.7733 185.101L94.6439 175.089L91.1514 174.365L91.216 184.442L94.7733 185.101Z" fill="#F7F7FA"/>
<path d="M86.8828 173.507L87.0122 183.716L90.5694 184.374V174.231L86.8828 173.507Z" fill="#F7F7FA"/>
<path d="M138.301 124.373L138.431 132.869L140.824 133.857L140.63 125.427L138.301 124.373Z" fill="#F7F7FA"/>
<path d="M143.475 134.912L143.216 126.547L141.082 125.625L141.276 134.056L143.475 134.912Z" fill="#F7F7FA"/>
<path d="M139.207 184.111L139.336 192.871L142.118 193.332L141.923 184.638L139.207 184.111Z" fill="#F7F7FA"/>
<path d="M145.092 193.86L144.834 185.232L142.376 184.705L142.57 193.465L145.092 193.86Z" fill="#F7F7FA"/>
<path d="M145.674 215.069L143.022 214.871L143.217 223.104L145.868 223.17L145.674 215.069Z" fill="#F7F7FA"/>
<path d="M139.725 214.673L139.854 223.038L142.764 223.103L142.57 214.87L139.725 214.673Z" fill="#F7F7FA"/>
<path d="M138.753 153.814L138.883 162.574L141.47 163.365L141.276 154.671L138.753 153.814Z" fill="#F7F7FA"/>
<path d="M144.252 164.156L143.993 155.527L141.729 154.803L141.924 163.497L144.252 164.156Z" fill="#F7F7FA"/>
<path d="M139.012 168.897L139.142 177.723L141.793 178.316L141.599 169.556L139.012 168.897Z" fill="#F7F7FA"/>
<path d="M144.639 179.04L144.445 170.28L142.052 169.687L142.246 178.447L144.639 179.04Z" fill="#F7F7FA"/>
<path d="M139.465 199.063L139.595 208.152L142.441 208.481L142.246 199.458L139.465 199.063Z" fill="#F7F7FA"/>
<path d="M145.48 208.811L145.222 199.853L142.699 199.524L142.893 208.547L145.48 208.811Z" fill="#F7F7FA"/>
<path d="M138.495 138.929L138.624 147.821L141.147 148.677L140.953 139.851L138.495 138.929Z" fill="#F7F7FA"/>
<path d="M143.864 149.599L143.605 140.839L141.406 140.049L141.6 148.875L143.864 149.599Z" fill="#F7F7FA"/>
<path d="M146.709 142.025L146.903 150.653L149.361 151.51L149.103 142.947L146.709 142.025Z" fill="#F7F7FA"/>
<path d="M152.013 152.431L151.754 143.934L149.62 143.144L149.814 151.64L152.013 152.431Z" fill="#F7F7FA"/>
<path d="M148.456 215.265L148.65 223.235L151.301 223.3L151.043 215.463L148.456 215.265Z" fill="#F7F7FA"/>
<path d="M153.954 223.366L153.76 215.66L151.561 215.463L151.755 223.3L153.954 223.366Z" fill="#F7F7FA"/>
<path d="M146.386 127.865L146.58 136.163L148.973 137.151L148.779 128.918L146.386 127.865Z" fill="#F7F7FA"/>
<path d="M151.625 138.204L151.366 130.037L149.232 129.115L149.426 137.348L151.625 138.204Z" fill="#F7F7FA"/>
<path d="M147.744 185.824L147.938 194.387L150.525 194.848L150.267 186.351L147.744 185.824Z" fill="#F7F7FA"/>
<path d="M153.177 195.31L152.983 186.879L150.784 186.418L150.978 194.914L153.177 195.31Z" fill="#F7F7FA"/>
<path d="M153.565 209.666L153.371 200.972L151.107 200.709L151.366 209.469L153.565 209.666Z" fill="#F7F7FA"/>
<path d="M148.067 200.249L148.326 209.14L150.913 209.404L150.654 200.644L148.067 200.249Z" fill="#F7F7FA"/>
<path d="M152.4 166.46L152.142 158.161L150.007 157.437L150.201 165.867L152.4 166.46Z" fill="#F7F7FA"/>
<path d="M147.033 156.514L147.227 165.011L149.749 165.735L149.49 157.305L147.033 156.514Z" fill="#F7F7FA"/>
<path d="M152.789 180.95L152.53 172.387L150.331 171.795L150.59 180.423L152.789 180.95Z" fill="#F7F7FA"/>
<path d="M147.421 171.071L147.615 179.699L150.137 180.292L149.879 171.729L147.421 171.071Z" fill="#F7F7FA"/>
<path d="M90.7632 211.182V221.984H91.41L91.3453 211.248L90.7632 211.182Z" fill="#F2F3F7"/>
<path d="M90.8924 120.882L90.2456 120.619L90.3103 131.289L90.9571 131.486L90.8924 120.882Z" fill="#F2F3F7"/>
<path d="M91.2811 192.542L90.6343 192.476L90.699 202.883L91.2811 202.949V192.542Z" fill="#F2F3F7"/>
<path d="M90.9571 138.469L90.375 138.205L90.4397 148.678L91.0218 148.809L90.9571 138.469Z" fill="#F2F3F7"/>
<path d="M90.7632 103.89L90.1812 103.561L90.2458 113.374L90.8279 113.572L90.7632 103.89Z" fill="#F2F3F7"/>
<path d="M91.0867 156.516L90.4399 156.384L90.5046 166.263L91.1514 166.461L91.0867 156.516Z" fill="#F2F3F7"/>
<path d="M91.1514 174.363L90.5693 174.232V184.375L91.2161 184.441L91.1514 174.363Z" fill="#F2F3F7"/>
<path d="M101.694 124.966L101.047 124.768L101.176 134.977L101.823 135.24L101.694 124.966Z" fill="#F2F3F7"/>
<path d="M101.888 141.959L101.306 141.761L101.435 151.839L102.082 152.036L101.888 141.959Z" fill="#F2F3F7"/>
<path d="M101.435 108.435L100.789 108.171L100.918 117.722L101.565 117.919L101.435 108.435Z" fill="#F2F3F7"/>
<path d="M102.34 212.037L102.47 222.246H103.116L102.922 212.037H102.34Z" fill="#F2F3F7"/>
<path d="M102.147 159.414L101.564 159.216L101.694 168.898L102.341 169.096L102.147 159.414Z" fill="#F2F3F7"/>
<path d="M102.405 176.669L101.823 176.537L101.952 186.351L102.599 186.417L102.405 176.669Z" fill="#F2F3F7"/>
<path d="M102.664 194.123L102.082 193.991L102.211 204.134L102.858 204.2L102.664 194.123Z" fill="#F2F3F7"/>
<path d="M141.082 125.623L140.629 125.426L140.823 133.856L141.276 134.054L141.082 125.623Z" fill="#F2F3F7"/>
<path d="M142.376 184.705L141.923 184.639L142.117 193.333L142.57 193.464L142.376 184.705Z" fill="#F2F3F7"/>
<path d="M142.569 214.871L142.763 223.104H143.216L143.022 214.871H142.569Z" fill="#F2F3F7"/>
<path d="M141.729 154.802L141.276 154.671L141.47 163.365L141.923 163.496L141.729 154.802Z" fill="#F2F3F7"/>
<path d="M142.052 169.688L141.6 169.556L141.794 178.316L142.246 178.448L142.052 169.688Z" fill="#F2F3F7"/>
<path d="M142.699 199.525L142.247 199.459L142.441 208.482L142.893 208.548L142.699 199.525Z" fill="#F2F3F7"/>
<path d="M141.406 140.048L140.953 139.851L141.147 148.677L141.6 148.874L141.406 140.048Z" fill="#F2F3F7"/>
<path d="M149.62 143.145L149.103 142.947L149.361 151.51L149.814 151.641L149.62 143.145Z" fill="#F2F3F7"/>
<path d="M151.56 215.463H151.042L151.301 223.3H151.754L151.56 215.463Z" fill="#F2F3F7"/>
<path d="M149.232 129.116L148.779 128.918L148.973 137.151L149.426 137.349L149.232 129.116Z" fill="#F2F3F7"/>
<path d="M150.784 186.417L150.267 186.351L150.525 194.847L150.978 194.913L150.784 186.417Z" fill="#F2F3F7"/>
<path d="M151.107 200.709L150.654 200.644L150.913 209.403L151.366 209.469L151.107 200.709Z" fill="#F2F3F7"/>
<path d="M150.008 157.437L149.491 157.305L149.749 165.736L150.202 165.867L150.008 157.437Z" fill="#F2F3F7"/>
<path d="M150.331 171.794L149.878 171.729L150.137 180.291L150.59 180.423L150.331 171.794Z" fill="#F2F3F7"/>
<path d="M129.893 117.522L130.863 153.352L110.425 146.832L109.778 108.433L129.893 117.522Z" fill="#D0D5F4"/>
<path d="M110.425 146.832L130.863 153.353L127.629 154.67L110.425 149.203V146.832Z" fill="#D0D5F4"/>
<path d="M127.694 163.76L127.629 154.671L120.126 152.3L120.32 161.521L127.694 163.76Z" fill="#D0D5F4"/>
<path d="M110.425 149.204L110.619 158.491L119.674 161.323L119.48 152.102L110.425 149.204Z" fill="#D0D5F4"/>
<path d="M110.684 164.682L110.878 176.406L120.062 178.645L119.803 167.185L110.684 164.682Z" fill="#D0D5F4"/>
<path d="M127.953 180.489L127.823 169.358L120.45 167.383L120.709 178.777L127.953 180.489Z" fill="#D0D5F4"/>
<path d="M128.146 194.122L128.017 184.374L120.773 182.793L121.032 193.134L128.146 194.122Z" fill="#D0D5F4"/>
<path d="M110.942 180.687L111.136 191.752L120.385 193.003L120.191 182.663L110.942 180.687Z" fill="#D0D5F4"/>
<path d="M111.266 197.351L111.395 207.625L120.773 208.218L120.514 198.602L111.266 197.351Z" fill="#D0D5F4"/>
<path d="M128.341 208.678L128.211 199.655L121.162 198.733L121.356 208.217L128.341 208.678Z" fill="#D0D5F4"/>
<path d="M120.127 152.299L119.48 152.101L119.674 161.322L120.321 161.52L120.127 152.299Z" fill="#E1E4F4"/>
<path d="M120.45 167.382L119.804 167.184L120.062 178.644L120.709 178.776L120.45 167.382Z" fill="#E1E4F4"/>
<path d="M120.774 182.794L120.191 182.662L120.385 193.002L121.032 193.134L120.774 182.794Z" fill="#E1E4F4"/>
<path d="M121.161 198.733L120.515 198.602L120.773 208.218H121.355L121.161 198.733Z" fill="#E1E4F4"/>
<path d="M117.346 118.247L109.908 115.02L110.102 127.073L117.669 129.971L117.346 118.247Z" fill="#E1E4F4"/>
<path d="M129.182 134.32L128.859 123.32L119.933 119.369L120.256 130.961L129.182 134.32Z" fill="#E1E4F4"/>
<path d="M120.644 147.031L129.699 150.061L129.376 137.876L120.321 134.385L120.644 147.031Z" fill="#E1E4F4"/>
<path d="M110.167 130.5L110.361 143.541L118.057 146.175L117.734 133.398L110.167 130.5Z" fill="#E1E4F4"/>
<path d="M94.7081 225.21H94.2554V242.928H94.7081V225.21Z" fill="#F7F7FA"/>
<path d="M96.067 225.21H95.6143V242.928H96.067V225.21Z" fill="#F7F7FA"/>
<path d="M97.4244 225.21H96.9717V242.928H97.4244V225.21Z" fill="#F7F7FA"/>
<path d="M98.8477 225.21H98.395V242.928H98.8477V225.21Z" fill="#F7F7FA"/>
<path d="M100.206 225.21H99.7529V242.928H100.206V225.21Z" fill="#F7F7FA"/>
<path d="M101.564 225.21H101.111V242.928H101.564V225.21Z" fill="#F7F7FA"/>
<path d="M102.987 225.21H102.534V242.928H102.987V225.21Z" fill="#F7F7FA"/>
<path d="M104.345 225.21H103.893V242.928H104.345V225.21Z" fill="#F7F7FA"/>
<path d="M105.703 225.21H105.25V242.928H105.703V225.21Z" fill="#F7F7FA"/>
<path d="M107.127 225.21H106.674V242.928H107.127V225.21Z" fill="#F7F7FA"/>
<path d="M108.485 225.21H108.032V242.928H108.485V225.21Z" fill="#F7F7FA"/>
<path d="M109.843 225.21H109.39V242.928H109.843V225.21Z" fill="#F7F7FA"/>
<path d="M78.151 225.21H77.6982V242.928H78.151V225.21Z" fill="#F7F7FA"/>
<path d="M79.5094 225.21H79.0566V242.928H79.5094V225.21Z" fill="#F7F7FA"/>
<path d="M80.8673 225.21H80.4146V242.928H80.8673V225.21Z" fill="#F7F7FA"/>
<path d="M82.4197 225.21H81.7729V242.928H82.4197V225.21Z" fill="#F7F7FA"/>
<path d="M83.6485 225.21H83.1958V242.928H83.6485V225.21Z" fill="#F7F7FA"/>
<path d="M85.0069 225.21H84.5542V242.928H85.0069V225.21Z" fill="#F7F7FA"/>
<path d="M86.4293 225.21H85.9766V242.928H86.4293V225.21Z" fill="#F7F7FA"/>
<path d="M87.7882 225.21H87.3354V242.928H87.7882V225.21Z" fill="#F7F7FA"/>
<path d="M89.1461 225.21H88.6934V242.928H89.1461V225.21Z" fill="#F7F7FA"/>
<path d="M90.569 225.21H90.1162V242.928H90.569V225.21Z" fill="#F7F7FA"/>
<path d="M91.9274 225.21H91.4746V242.928H91.9274V225.21Z" fill="#F7F7FA"/>
<path d="M93.2853 225.21H92.8325V242.928H93.2853V225.21Z" fill="#F7F7FA"/>
<path d="M61.5934 225.21H61.1406V242.928H61.5934V225.21Z" fill="#F7F7FA"/>
<path d="M62.9518 225.21H62.499V242.928H62.9518V225.21Z" fill="#F7F7FA"/>
<path d="M64.3097 225.21H63.8569V242.928H64.3097V225.21Z" fill="#F7F7FA"/>
<path d="M65.733 225.21H65.2803V242.928H65.733V225.21Z" fill="#F7F7FA"/>
<path d="M67.0909 225.21H66.6382V242.928H67.0909V225.21Z" fill="#F7F7FA"/>
<path d="M68.4493 225.21H67.9966V242.928H68.4493V225.21Z" fill="#F7F7FA"/>
<path d="M69.8722 225.21H69.4194V242.928H69.8722V225.21Z" fill="#F7F7FA"/>
<path d="M71.2306 225.21H70.7778V242.928H71.2306V225.21Z" fill="#F7F7FA"/>
<path d="M72.5885 225.21H72.1357V242.928H72.5885V225.21Z" fill="#F7F7FA"/>
<path d="M74.0113 225.21H73.5586V242.928H74.0113V225.21Z" fill="#F7F7FA"/>
<path d="M75.3697 225.21H74.917V242.928H75.3697V225.21Z" fill="#F7F7FA"/>
<path d="M76.7281 225.21H76.2754V242.928H76.7281V225.21Z" fill="#F7F7FA"/>
<path d="M111.201 225.21H110.748V242.928H111.201V225.21Z" fill="#F7F7FA"/>
<path d="M112.624 225.21H112.171V242.928H112.624V225.21Z" fill="#F7F7FA"/>
<path d="M113.983 225.21H113.53V242.928H113.983V225.21Z" fill="#F7F7FA"/>
<path d="M115.34 225.21H114.887V242.928H115.34V225.21Z" fill="#F7F7FA"/>
<path d="M116.763 225.21H116.311V242.928H116.763V225.21Z" fill="#F7F7FA"/>
<path d="M118.121 225.21H117.668V242.928H118.121V225.21Z" fill="#F7F7FA"/>
<path d="M119.48 225.21H119.027V242.928H119.48V225.21Z" fill="#F7F7FA"/>
<path d="M120.903 225.21H120.45V242.928H120.903V225.21Z" fill="#F7F7FA"/>
<path d="M122.261 225.21H121.808V242.928H122.261V225.21Z" fill="#F7F7FA"/>
<path d="M123.619 225.21H123.167V242.928H123.619V225.21Z" fill="#F7F7FA"/>
<path d="M125.042 225.21H124.589V242.928H125.042V225.21Z" fill="#F7F7FA"/>
<path d="M126.4 225.21H125.947V242.928H126.4V225.21Z" fill="#F7F7FA"/>
<path d="M127.758 225.21H127.306V242.928H127.758V225.21Z" fill="#F7F7FA"/>
<path d="M129.182 225.21H128.729V242.928H129.182V225.21Z" fill="#F7F7FA"/>
<path d="M130.54 225.21H130.087V242.928H130.54V225.21Z" fill="#F7F7FA"/>
<path d="M131.898 225.21H131.445V242.928H131.898V225.21Z" fill="#F7F7FA"/>
<path d="M133.321 225.21H132.868V242.928H133.321V225.21Z" fill="#F7F7FA"/>
<path d="M134.679 225.21H134.226V242.928H134.679V225.21Z" fill="#F7F7FA"/>
<path d="M136.037 225.21H135.584V242.928H136.037V225.21Z" fill="#F7F7FA"/>
<path d="M138.818 225.21H138.366V242.928H138.818V225.21Z" fill="#F7F7FA"/>
<path d="M140.177 225.21H139.724V242.928H140.177V225.21Z" fill="#F7F7FA"/>
<path d="M137.461 225.21H137.008V242.928H137.461V225.21Z" fill="#F7F7FA"/>
<path d="M143.173 225.136L140.683 233.452L141.178 233.605L143.668 225.29L143.173 225.136Z" fill="#F7F7FA"/>
<path d="M144.51 225.1L140.662 237.952L141.157 238.106L145.005 225.254L144.51 225.1Z" fill="#F7F7FA"/>
<path d="M145.893 225.146L140.686 242.533L141.18 242.687L146.388 225.299L145.893 225.146Z" fill="#F7F7FA"/>
<path d="M147.264 225.143L141.151 245.554L141.646 245.708L147.759 225.296L147.264 225.143Z" fill="#F7F7FA"/>
<path d="M148.643 225.082L142.53 245.494L143.025 245.648L149.138 225.236L148.643 225.082Z" fill="#F7F7FA"/>
<path d="M150.003 225.084L143.89 245.496L144.385 245.649L150.498 225.238L150.003 225.084Z" fill="#F7F7FA"/>
<path d="M151.364 225.086L145.251 245.498L145.746 245.652L151.859 225.24L151.364 225.086Z" fill="#F7F7FA"/>
<path d="M152.723 225.089L146.61 245.5L147.105 245.654L153.218 225.242L152.723 225.089Z" fill="#F7F7FA"/>
<path d="M154.083 225.092L147.971 245.504L148.466 245.657L154.578 225.246L154.083 225.092Z" fill="#F7F7FA"/>
<path d="M155.443 225.095L149.331 245.507L149.825 245.661L155.938 225.249L155.443 225.095Z" fill="#F7F7FA"/>
<path d="M156.777 225.066L150.646 245.541L151.14 245.694L157.272 225.22L156.777 225.066Z" fill="#F7F7FA"/>
<path d="M158.137 225.068L152.005 245.543L152.5 245.696L158.632 225.222L158.137 225.068Z" fill="#F7F7FA"/>
<path d="M159.523 225.102L153.411 245.514L153.906 245.668L160.018 225.256L159.523 225.102Z" fill="#F7F7FA"/>
<path d="M160.094 232.33L156.151 245.497L156.646 245.651L160.589 232.484L160.094 232.33Z" fill="#F7F7FA"/>
<path d="M160.053 237.072L157.461 245.563L157.956 245.719L160.547 237.229L160.053 237.072Z" fill="#F7F7FA"/>
<path d="M160.053 227.81L154.751 245.513L155.246 245.666L160.548 227.964L160.053 227.81Z" fill="#F7F7FA"/>
<path d="M160.615 245.891H140.694V224.947H160.615V245.891ZM141.212 245.365H160.098V225.54H141.276V245.365H141.212Z" fill="#F7F7FA"/>
<path d="M140.953 224.947H60.3647V225.473H140.953V224.947Z" fill="#F7F7FA"/>
<path d="M-1.85405 91.7706V91.1778C-1.85405 90.5851 -2.24212 90.0581 -2.75953 89.8606L-42.8596 75.5681C-43.7004 75.3047 -44.6059 75.3047 -45.382 75.6999L-47.7104 76.7537L-49.8447 251.095L-0.689865 249.909L3.06144 90.3216L2.2853 89.9923C1.7032 89.7947 1.05642 89.8606 0.539001 90.1899L-1.85405 91.7706Z" fill="#E1E4F4"/>
<path d="M36.111 102.836L2.60812 90.1902C2.02603 89.9926 1.37926 90.3878 1.37926 91.0464L-0.69043 249.91L37.922 249.185V105.405C37.922 104.285 37.2105 103.231 36.111 102.836Z" fill="#ECEEFA"/>
<path d="M6.22995 209.996L6.10059 220.864L10.434 221.061L10.5633 210.26L6.22995 209.996Z" fill="#F7F7FA"/>
<path d="M16.1259 221.325L16.2553 210.655L11.2104 210.326L11.0811 221.061L16.1259 221.325Z" fill="#F7F7FA"/>
<path d="M10.4341 221.061H11.0809L11.2102 210.326L10.5634 210.26L10.4341 221.061Z" fill="#F2F3F7"/>
<path d="M16.3198 202.948L16.4491 192.542L11.4043 191.949L11.2749 202.487L16.3198 202.948Z" fill="#F7F7FA"/>
<path d="M6.48825 191.423L6.35889 202.027L10.6923 202.422L10.8216 191.884L6.48825 191.423Z" fill="#F7F7FA"/>
<path d="M10.6929 202.422L11.275 202.488L11.4043 191.95L10.8222 191.884L10.6929 202.422Z" fill="#F2F3F7"/>
<path d="M16.5139 184.375L16.6432 174.166L11.6631 173.375L11.5337 183.716L16.5139 184.375Z" fill="#F7F7FA"/>
<path d="M6.74751 172.519L6.61816 183.057L10.8869 183.65L11.0162 173.244L6.74751 172.519Z" fill="#F7F7FA"/>
<path d="M10.8867 183.65L11.5335 183.716L11.6629 173.375L11.0161 173.243L10.8867 183.65Z" fill="#F2F3F7"/>
<path d="M16.708 166.328L16.8373 156.119L11.9218 155.131L11.7925 165.406L16.708 166.328Z" fill="#F7F7FA"/>
<path d="M6.94137 154.143L6.81201 164.484L11.1454 165.274L11.2748 155L6.94137 154.143Z" fill="#F7F7FA"/>
<path d="M11.1455 165.275L11.7923 165.407L11.9216 155.132L11.2749 155L11.1455 165.275Z" fill="#F2F3F7"/>
<path d="M7.39448 117.524L7.26514 127.864L11.5985 128.984L11.7279 118.775L7.39448 117.524Z" fill="#F7F7FA"/>
<path d="M17.0954 130.499L17.1601 120.356L12.374 118.972L12.2446 129.181L17.0954 130.499Z" fill="#F7F7FA"/>
<path d="M11.5981 128.985L12.2449 129.182L12.3743 118.973L11.7275 118.776L11.5981 128.985Z" fill="#F2F3F7"/>
<path d="M7.20016 135.9L7.0708 145.911L11.4042 146.899L11.5335 137.019L7.20016 135.9Z" fill="#F7F7FA"/>
<path d="M16.9018 148.151L16.9665 138.403L12.1157 137.152L11.9863 147.031L16.9018 148.151Z" fill="#F7F7FA"/>
<path d="M11.4043 146.899L11.9864 147.031L12.1158 137.151L11.5336 137.02L11.4043 146.899Z" fill="#F2F3F7"/>
<path d="M15.9318 240.162L16.0611 229.558L10.9516 229.427L10.8223 240.162H15.9318Z" fill="#F7F7FA"/>
<path d="M6.03582 229.293L5.8418 240.161H10.1752L10.3692 229.425L6.03582 229.293Z" fill="#F7F7FA"/>
<path d="M10.1758 240.162H10.8226L10.9519 229.427H10.3698L10.1758 240.162Z" fill="#F2F3F7"/>
<path d="M31.2598 186.352L31.3245 176.604L26.6677 175.813L26.603 185.759L31.2598 186.352Z" fill="#F7F7FA"/>
<path d="M22.1406 175.088L22.0112 185.165L25.9566 185.692L26.0859 175.68L22.1406 175.088Z" fill="#F7F7FA"/>
<path d="M25.957 185.692L26.6038 185.758L26.6685 175.813L26.0864 175.681L25.957 185.692Z" fill="#F2F3F7"/>
<path d="M31.5189 151.509L31.6482 142.157L26.9914 140.971L26.9268 150.456L31.5189 151.509Z" fill="#F7F7FA"/>
<path d="M22.4641 139.785L22.3994 149.402L26.3447 150.324L26.4094 140.839L22.4641 139.785Z" fill="#F7F7FA"/>
<path d="M26.3447 150.323L26.9268 150.455L26.9915 140.971L26.4094 140.839L26.3447 150.323Z" fill="#F2F3F7"/>
<path d="M22.2698 157.24L22.2051 167.317L26.1504 168.042L26.2151 158.096L22.2698 157.24Z" fill="#F7F7FA"/>
<path d="M31.3897 169.029L31.4544 159.15L26.8623 158.228L26.7329 168.173L31.3897 169.029Z" fill="#F7F7FA"/>
<path d="M26.1504 168.041L26.7325 168.172L26.8618 158.227L26.2151 158.095L26.1504 168.041Z" fill="#F2F3F7"/>
<path d="M30.9368 222.05L31.0015 211.71L26.3447 211.38L26.2153 221.853L30.9368 222.05Z" fill="#F7F7FA"/>
<path d="M21.7524 211.049L21.623 221.587L25.6331 221.785L25.6977 211.312L21.7524 211.049Z" fill="#F7F7FA"/>
<path d="M25.6333 221.786L26.2154 221.851L26.3448 211.379L25.698 211.313L25.6333 221.786Z" fill="#F2F3F7"/>
<path d="M30.8071 240.227L30.8718 229.952L26.1503 229.821L26.021 240.227H30.8071Z" fill="#F7F7FA"/>
<path d="M21.5585 229.689L21.4292 240.227H25.4392L25.5039 229.821L21.5585 229.689Z" fill="#F7F7FA"/>
<path d="M25.439 240.227H26.0211L26.1504 229.821H25.5036L25.439 240.227Z" fill="#F2F3F7"/>
<path d="M31.066 204.266L31.1953 194.123L26.4739 193.596L26.4092 203.871L31.066 204.266Z" fill="#F7F7FA"/>
<path d="M21.9467 193.136L21.8174 203.476L25.7627 203.806L25.8921 193.531L21.9467 193.136Z" fill="#F7F7FA"/>
<path d="M25.7627 203.806L26.4095 203.871L26.4742 193.597L25.8921 193.531L25.7627 203.806Z" fill="#F2F3F7"/>
<path d="M31.8421 117.655L31.9068 107.842L27.3793 106.327L27.25 116.206L31.8421 117.655Z" fill="#F7F7FA"/>
<path d="M22.852 104.746L22.7227 114.823L26.668 116.074L26.7326 106.063L22.852 104.746Z" fill="#F7F7FA"/>
<path d="M27.3799 106.326L26.7331 106.063L26.6685 116.074L27.2506 116.206L27.3799 106.326Z" fill="#F2F3F7"/>
<path d="M7.65278 99.6741L7.52344 110.015L11.8568 111.398L11.9215 101.123L7.65278 99.6741Z" fill="#F7F7FA"/>
<path d="M12.4395 111.596L17.2256 113.111L17.3549 102.902L12.5688 101.321L12.4395 111.596Z" fill="#F7F7FA"/>
<path d="M11.9211 101.123L11.8564 111.398L12.4386 111.595L12.5679 101.32L11.9211 101.123Z" fill="#F2F3F7"/>
<path d="M31.7127 134.516L31.7774 124.703L27.1853 123.385L27.1206 133.265L31.7127 134.516Z" fill="#F7F7FA"/>
<path d="M22.6577 122.002L22.5283 132.013L26.4736 133.133L26.603 123.188L22.6577 122.002Z" fill="#F7F7FA"/>
<path d="M26.4741 133.132L27.1209 133.264L27.1856 123.385L26.6035 123.187L26.4741 133.132Z" fill="#F2F3F7"/>
<path d="M88.2409 248.46L37.9219 246.748V241.479L88.2409 243.191V248.46Z" fill="#D0D5F4"/>
<path d="M140.953 242.927L88.2407 243.191V248.46L140.953 246.682V242.927Z" fill="#D0D5F4"/>
<path d="M-112.841 254.19L-111.224 219.282L60.753 222.839L60.3649 249.843H60.1062L-112.841 254.19ZM-110.707 219.875L-112.259 253.597L59.7828 249.316L60.1709 223.431L-110.707 219.875Z" fill="#F7F7FA"/>
<path d="M0.109445 221.91L-0.322754 251.084L0.259301 251.093L0.691499 221.919L0.109445 221.91Z" fill="#F7F7FA"/>
<path d="M2.16755 221.889L1.73633 250.998L2.31838 251.007L2.74961 221.898L2.16755 221.889Z" fill="#F7F7FA"/>
<path d="M4.2247 221.935L3.79443 250.978L4.37649 250.987L4.80676 221.944L4.2247 221.935Z" fill="#F7F7FA"/>
<path d="M6.2436 221.988L5.87646 250.899L6.45852 250.907L6.82565 221.995L6.2436 221.988Z" fill="#F7F7FA"/>
<path d="M8.30136 222.032L7.93506 250.878L8.51711 250.885L8.88342 222.04L8.30136 222.032Z" fill="#F7F7FA"/>
<path d="M10.3329 222.072L10.0283 250.852L10.6104 250.858L10.9149 222.078L10.3329 222.072Z" fill="#F7F7FA"/>
<path d="M12.3788 222.128L12.0757 250.776L12.6577 250.782L12.9609 222.134L12.3788 222.128Z" fill="#F7F7FA"/>
<path d="M14.4245 222.154L14.1831 250.673L14.7652 250.678L15.0066 222.159L14.4245 222.154Z" fill="#F7F7FA"/>
<path d="M16.5781 222.216L16.1548 250.667L16.7368 250.676L17.1601 222.225L16.5781 222.216Z" fill="#F7F7FA"/>
<path d="M18.7769 250.633H18.1948L18.5829 222.245H19.165L18.7769 250.633Z" fill="#F7F7FA"/>
<path d="M20.6562 222.315L20.2959 250.568L20.878 250.576L21.2383 222.323L20.6562 222.315Z" fill="#F7F7FA"/>
<path d="M22.715 222.297L22.3555 250.483L22.9375 250.491L23.297 222.304L22.715 222.297Z" fill="#F7F7FA"/>
<path d="M24.7371 222.417L24.439 250.472L25.021 250.478L25.3192 222.423L24.7371 222.417Z" fill="#F7F7FA"/>
<path d="M26.7955 222.395L26.498 250.385L27.0801 250.391L27.3776 222.402L26.7955 222.395Z" fill="#F7F7FA"/>
<path d="M28.8423 222.487L28.6055 250.348L29.1876 250.353L29.4244 222.492L28.8423 222.487Z" fill="#F7F7FA"/>
<path d="M31.0658 250.304H30.5483L31.0658 222.509H31.5832L31.0658 250.304Z" fill="#F7F7FA"/>
<path d="M33.0923 222.569L32.6094 250.292L33.1914 250.303L33.6743 222.58L33.0923 222.569Z" fill="#F7F7FA"/>
<path d="M35.151 222.614L34.6704 250.205L35.2524 250.216L35.733 222.624L35.151 222.614Z" fill="#F7F7FA"/>
<path d="M37.129 222.643L36.7095 250.171L37.2915 250.18L37.7111 222.652L37.129 222.643Z" fill="#F7F7FA"/>
<path d="M39.1866 222.688L38.769 250.085L39.3511 250.094L39.7686 222.697L39.1866 222.688Z" fill="#F7F7FA"/>
<path d="M41.2077 222.744L40.8506 250.074L41.4326 250.082L41.7897 222.751L41.2077 222.744Z" fill="#F7F7FA"/>
<path d="M43.266 222.79L42.9106 249.989L43.4927 249.996L43.848 222.797L43.266 222.79Z" fill="#F7F7FA"/>
<path d="M45.335 222.758L44.9805 249.891L45.5625 249.899L45.917 222.766L45.335 222.758Z" fill="#F7F7FA"/>
<path d="M47.3323 222.836L47.0376 249.903L47.6196 249.91L47.9143 222.842L47.3323 222.836Z" fill="#F7F7FA"/>
<path d="M49.4282 222.913L49.1343 249.914L49.7163 249.921L50.0103 222.919L49.4282 222.913Z" fill="#F7F7FA"/>
<path d="M51.4503 222.893L51.2163 249.766L51.7984 249.771L52.0324 222.899L51.4503 222.893Z" fill="#F7F7FA"/>
<path d="M53.5083 223.005L53.2754 249.746L53.8575 249.751L54.0904 223.01L53.5083 223.005Z" fill="#F7F7FA"/>
<path d="M55.6278 223.013L55.2793 249.686L55.8613 249.693L56.2098 223.021L55.6278 223.013Z" fill="#F7F7FA"/>
<path d="M57.6498 223.132L57.3608 249.673L57.9429 249.679L58.2318 223.139L57.6498 223.132Z" fill="#F7F7FA"/>
<path d="M59.7091 223.114L59.4209 249.589L60.0029 249.595L60.2912 223.121L59.7091 223.114Z" fill="#F7F7FA"/>
<path d="M528.579 171.814C524.648 170.031 519.992 171.445 516.242 173.474C512.432 175.504 508.864 178.086 504.631 178.885C495.378 180.607 486.549 173.229 477.115 173.782C471.612 174.089 466.593 177.164 462.602 180.853C458.247 184.911 454.679 189.954 453.41 195.672C452.2 201.39 453.651 207.847 458.006 211.844C463.63 217.009 472.217 217.132 479.958 217.009C499.067 216.578 518.177 216.209 537.347 215.779V176.795C536.622 176.61 535.896 176.426 535.231 176.118C532.751 175.073 530.998 172.86 528.579 171.814Z" fill="#E1E4F4"/>
<path d="M524.95 203.543V218.731C522.713 215.779 520.838 212.582 519.387 209.2C519.205 208.831 518.601 208.708 518.48 209.2C518.419 209.384 518.419 209.569 518.359 209.692C518.298 210.061 518.601 210.307 518.903 210.307C519.931 212.643 521.14 214.795 522.531 216.948C520.778 216.394 519.024 214.98 517.754 213.812C517.573 213.627 517.391 213.443 517.21 213.32V203.604C517.21 202.375 515.274 202.375 515.274 203.604V211.168C514.972 210.799 514.73 210.368 514.549 209.938C514.307 209.384 513.46 209.876 513.702 210.43C514.125 211.291 514.67 212.028 515.274 212.766V213.627C515.214 213.689 515.154 213.75 515.154 213.812C514.851 215.533 511.767 217.009 510.376 217.87C509.348 218.546 508.32 219.1 507.231 219.715C508.501 217.685 509.59 215.595 510.557 213.443C510.739 213.012 510.376 212.52 509.892 212.828C509.469 213.074 509.409 213.197 509.409 213.627C508.26 216.087 506.929 218.485 505.417 220.76C505.236 220.821 505.175 220.944 505.175 221.129C504.087 222.728 502.938 224.326 501.607 225.802V221.498C503.422 217.378 504.933 213.197 506.143 208.893C506.324 208.278 505.357 208.032 505.236 208.647C504.268 212.213 503.059 215.656 501.607 219.1V203.604C501.607 202.375 499.672 202.375 499.672 203.604V223.096C495.741 220.329 492.839 216.579 491.266 212.09C491.085 211.536 490.117 211.782 490.359 212.336C491.327 215.041 492.718 217.439 494.471 219.592C492.294 219.161 490.48 217.009 488.968 215.533C488.545 215.103 487.456 214.181 486.549 213.258V203.543C486.549 202.313 484.614 202.313 484.614 203.543V217.194C482.921 213.75 481.772 210.122 481.107 206.371C481.409 205.634 481.651 204.957 481.953 204.219C482.195 203.666 481.228 203.42 481.046 203.973L480.865 204.465C480.804 203.973 480.744 203.543 480.683 203.051C480.623 202.436 479.655 202.436 479.716 203.051C479.837 204.158 479.958 205.203 480.139 206.248C479.595 207.601 479.111 208.954 478.567 210.245C478.023 209.2 477.599 208.155 477.357 207.048V203.481C477.357 202.252 475.422 202.252 475.422 203.481V223.342C471.612 217.685 468.407 211.598 465.988 205.265C465.746 204.711 464.839 204.957 465.081 205.511C466.714 209.815 468.649 213.935 470.947 217.931C466.472 213.32 462.602 208.216 459.397 202.744C459.094 202.19 458.247 202.682 458.55 203.235C462.42 209.876 467.198 215.841 472.822 221.19L472.882 221.252C473.729 222.543 474.576 223.834 475.422 225.126V241.728C475.422 242.957 477.357 242.957 477.357 241.728V215.718C477.478 215.656 477.539 215.595 477.599 215.472C477.962 214.488 478.385 213.504 478.748 212.52C480.381 215.041 482.619 217.378 484.614 219.346V241.666C484.614 242.896 486.549 242.896 486.549 241.666V214.365C487.275 215.164 488.061 215.964 488.847 216.702C490.662 218.423 492.657 220.637 495.379 220.575C496.649 221.928 498.1 223.158 499.672 224.203V241.666C499.672 242.896 501.607 242.896 501.607 241.666V227.155C503.24 225.31 504.752 223.342 506.082 221.313C508.26 220.145 510.437 218.854 512.493 217.439C513.339 216.825 514.428 216.271 515.214 215.41V241.605C515.214 242.834 517.149 242.834 517.149 241.605V214.488C517.391 214.672 517.633 214.918 517.935 215.103C519.447 216.271 521.08 217.624 523.015 217.931C523.076 217.931 523.136 217.931 523.197 217.931C523.68 218.608 524.164 219.346 524.708 220.022C524.769 220.083 524.829 220.145 524.95 220.145V241.605C524.95 242.834 526.885 242.834 526.885 241.605V203.481C526.885 202.313 524.95 202.313 524.95 203.543ZM477.357 213.381V209.999C477.599 210.491 477.841 210.983 478.143 211.475C477.841 212.09 477.599 212.766 477.357 213.381ZM479.172 211.414L480.502 208.093C481.107 211.045 482.074 213.873 483.344 216.64C481.772 215.041 480.321 213.32 479.172 211.414Z" fill="#D0D5F4"/>
<path d="M504.329 191.921C493.867 191.798 483.405 191.675 473.064 192.843C469.194 193.274 465.263 193.889 461.997 195.979C458.731 198.07 456.434 201.882 457.401 205.571C458.55 210.245 464.235 212.458 469.194 212.335C474.515 212.212 479.595 210.245 484.735 209.076C489.936 207.908 495.742 207.539 500.217 210.306C502.152 211.536 503.785 213.258 505.962 213.995C508.32 214.733 510.86 214.18 513.279 213.626C521.262 211.659 529.305 209.753 537.287 207.785V205.018C531.179 199.853 524.648 194.934 516.787 193.089C512.735 192.044 508.502 191.982 504.329 191.921Z" fill="#E1E4F4"/>
<path d="M492.658 208.462C489.997 208.462 487.82 209.753 487.82 211.414C487.82 213.012 489.997 214.365 492.658 214.365C495.318 214.365 497.495 213.074 497.495 211.414C497.495 209.753 495.318 208.462 492.658 208.462Z" fill="#E1E4F4"/>
<path d="M527.672 224.326C521.382 226.232 519.084 232.197 514.004 232.689C508.925 233.18 504.812 230.352 500.458 232.381C496.044 234.41 494.29 237.608 490.903 237.792C487.517 237.977 488.061 236.624 483.647 237.362C479.232 238.161 467.5 242.527 467.5 242.527H537.347V224.572C534.324 223.527 531.179 223.281 527.672 224.326Z" fill="#E1E4F4"/>
<path d="M469.64 286.736C465.588 286.736 462.262 289.933 462.262 293.869H477.018C477.018 289.933 473.752 286.736 469.64 286.736Z" fill="#ECEEFA"/>
</g>
</svg>
